<svg width="256" height="256" viewBox="0 0 256 256" fill="none" xmlns="http://www.w3.org/2000/svg">
<rect width="256" height="256" rx="60" fill="url(#paint0_linear_46_12)"/>
<path d="M70.6508 68.6C74.5494 68.6 78.3908 68.772 82.1748 69.116L82.3468 69.288C80.6268 89.1253 78.6774 108.905 76.4988 128.628C74.4348 148.351 72.6001 168.188 70.9948 188.14C70.1921 188.369 69.2748 188.484 68.2428 188.484C67.3254 188.484 66.2934 188.484 65.1468 188.484H58.9548H56.8908C55.8588 187.108 54.9414 185.159 54.1388 182.636C53.4508 179.999 52.7054 177.247 51.9028 174.38C51.1001 171.399 50.2974 168.532 49.4948 165.78C48.6921 163.028 47.7748 160.849 46.7428 159.244H46.5708C45.5388 160.276 44.6214 162.111 43.8188 164.748C43.1308 167.271 42.4428 170.023 41.7548 173.004C41.0668 175.871 40.3788 178.68 39.6908 181.432C39.0028 184.184 38.2001 186.305 37.2828 187.796C35.7921 188.025 34.4161 188.255 33.1548 188.484C31.8934 188.599 30.4601 188.656 28.8548 188.656C27.0201 188.656 24.8414 188.484 22.3188 188.14H22.1468C19.3948 168.532 16.7001 148.809 14.0628 128.972C11.4254 109.135 9.93477 89.2973 9.59077 69.46V69.288C11.3108 69.0587 13.0881 68.8867 14.9228 68.772C16.8721 68.5427 18.8214 68.428 20.7708 68.428C23.0641 68.428 25.3574 68.4853 27.6508 68.6C29.9441 68.7147 32.1228 68.8293 34.1868 68.944C34.6454 73.9893 34.8748 79.6653 34.8748 85.972C34.8748 92.2787 34.8748 98.6427 34.8748 105.064C34.8748 111.485 35.0468 117.792 35.3908 123.984C35.7348 130.176 36.5374 135.737 37.7988 140.668C39.2894 135.508 40.6081 130.463 41.7548 125.532C43.0161 120.487 44.2774 115.384 45.5388 110.224C45.6534 109.995 45.7108 109.823 45.7108 109.708C45.7108 109.593 45.7681 109.479 45.8828 109.364C46.3414 109.708 46.9721 111.371 47.7748 114.352C48.6921 117.219 49.5521 120.487 50.3548 124.156C51.2721 127.825 52.1321 131.437 52.9348 134.992C53.8521 138.547 54.6548 141.184 55.3428 142.904C55.8014 137.973 56.1454 132.355 56.3748 126.048C56.6041 119.627 56.7761 113.091 56.8908 106.44C57.1201 99.7893 57.2921 93.3107 57.4068 87.004C57.6361 80.5827 57.9801 74.8493 58.4388 69.804V69.632C60.3881 69.1733 62.3948 68.8867 64.4588 68.772C66.5228 68.6573 68.5868 68.6 70.6508 68.6ZM164.364 87.864C167.001 92.4507 168.492 98.012 168.836 104.548V104.72C168.836 105.523 168.836 106.325 168.836 107.128C168.836 107.816 168.779 108.504 168.664 109.192C167.976 114.696 166.141 119.741 163.16 124.328C160.293 128.915 156.681 132.813 152.324 136.024C147.967 139.235 143.151 141.585 137.876 143.076C132.601 144.452 127.212 144.681 121.708 143.764C121.823 145.369 121.88 146.975 121.88 148.58C121.88 150.071 121.88 152.307 121.88 155.288C121.88 158.155 121.88 162.053 121.88 166.984C121.995 171.915 122.167 178.565 122.396 186.936V187.108C122.281 187.108 122.167 187.165 122.052 187.28C122.052 187.28 121.995 187.28 121.88 187.28C120.275 187.739 118.211 188.083 115.688 188.312C113.28 188.427 110.7 188.541 107.948 188.656C105.311 188.656 102.673 188.599 100.036 188.484C97.3986 188.369 95.1052 188.197 93.1559 187.968C92.8119 179.597 92.6399 170.539 92.6399 160.792C92.6399 150.931 92.6399 140.84 92.6399 130.52C92.6399 120.2 92.5826 109.823 92.4679 99.388C92.4679 88.9533 92.2959 78.9773 91.9519 69.46C96.6532 68.1987 101.756 67.2813 107.26 66.708C112.879 66.1347 118.44 66.0773 123.944 66.536C129.563 66.9947 135.009 68.0267 140.284 69.632C145.559 71.1227 150.203 73.416 154.216 76.512C158.344 79.4933 161.727 83.2773 164.364 87.864ZM142.176 100.764C141.373 99.388 140.227 98.2413 138.736 97.324C135.869 95.0307 132.544 93.5973 128.76 93.024C124.976 92.336 121.249 92.4507 117.58 93.368C117.351 93.368 117.179 93.4253 117.064 93.54C117.179 95.604 117.179 97.7827 117.064 100.076C117.064 102.369 117.064 104.663 117.064 106.956C117.179 109.249 117.293 111.485 117.408 113.664C117.637 115.728 118.039 117.62 118.612 119.34H119.128C120.963 119.225 122.912 119.168 124.976 119.168C127.04 119.053 129.047 118.881 130.996 118.652C133.06 118.423 135.009 118.021 136.844 117.448C138.793 116.76 140.456 115.728 141.832 114.352C142.749 113.091 143.38 111.657 143.724 110.052C144.183 108.447 144.24 106.841 143.896 105.236C143.667 103.631 143.093 102.14 142.176 100.764ZM249.516 170.252C249.516 171.399 249.573 172.431 249.688 173.348C249.917 177.476 250.032 180.629 250.032 182.808C250.032 184.872 249.86 186.42 249.516 187.452C249.287 188.369 248.828 188.885 248.14 189C247.452 189 246.477 189 245.216 189C243.955 188.885 242.292 188.885 240.228 189C238.279 189.115 234.896 189.229 230.08 189.344C225.379 189.459 218.843 189.516 210.472 189.516C202.216 189.516 191.151 189.401 177.276 189.172V186.076C177.62 177.476 177.907 169.736 178.136 162.856C178.365 155.861 178.48 149.383 178.48 143.42C178.595 137.343 178.652 131.495 178.652 125.876C178.652 120.257 178.595 114.524 178.48 108.676C178.365 102.828 178.251 96.636 178.136 90.1C178.021 83.4493 177.907 76.1107 177.792 68.084C178.939 67.6253 180.716 67.2813 183.124 67.052C185.532 66.708 188.112 66.536 190.864 66.536C193.616 66.536 196.311 66.708 198.948 67.052C201.585 67.396 203.707 67.912 205.312 68.6C205.083 76.0533 204.968 83.736 204.968 91.648C205.083 99.4453 205.197 107.3 205.312 115.212C205.427 123.124 205.484 131.036 205.484 138.948C205.599 146.745 205.599 154.313 205.484 161.652V161.824C206.287 161.595 207.777 161.537 209.956 161.652C212.249 161.652 214.887 161.709 217.868 161.824C220.849 161.939 224.003 162.111 227.328 162.34C230.768 162.455 233.979 162.569 236.96 162.684C240.056 162.799 242.751 162.913 245.044 163.028C247.452 163.028 249.115 162.971 250.032 162.856C250.032 164.117 249.975 165.379 249.86 166.64C249.745 167.787 249.631 168.991 249.516 170.252Z" fill="#412EEA"/>
<defs>
<linearGradient id="paint0_linear_46_12" x1="128" y1="0" x2="128" y2="256" gradientUnits="userSpaceOnUse">
<stop stop-color="#171717" stop-opacity="0"/>
<stop offset="1" stop-color="#171717"/>
</linearGradient>
</defs>
</svg>
